<svg width="56" height="44" viewBox="0 0 56 44" fill="none" xmlns="http://www.w3.org/2000/svg">
<path d="M27.5197 11.4904C26.7353 8.58204 27.4954 5.35097 29.804 3.06997C32.1126 0.786974 35.3799 0.035329 38.3209 0.811027C39.1053 3.71939 38.3452 6.95247 36.0386 9.23347C33.73 11.5165 30.4607 12.2681 27.5197 11.4904ZM26.5266 11.6908C25.9793 9.61029 26.1556 7.43753 26.9644 5.5053C26.5448 4.62337 25.9651 3.79756 25.2294 3.06997C22.9187 0.786974 19.6514 0.035329 16.7105 0.811027C15.9261 3.71939 16.6861 6.95247 18.9927 9.23347C21.0459 11.2639 23.8592 12.0837 26.5245 11.6908H26.5266ZM19.0474 30.6744C18.8225 29.9047 18.7008 29.0909 18.7008 28.2491C18.7008 24.2764 21.3885 20.9231 25.0632 19.8728L21.2831 16.1346L17.128 12.0256L15.0484 9.96908L8.81584 16.1346L2.58121 22.2981C-0.860403 25.7035 -0.860403 31.2236 2.58121 34.6271C6.02485 38.0325 11.6068 38.0325 15.0484 34.6271L19.0474 30.6744ZM52.4501 22.2981L46.2175 16.1346L39.9829 9.96908L37.9054 12.0256L45.727 19.7605L50.3706 24.3546H50.3726C51.5198 25.489 51.5198 27.3291 50.3726 28.4636C49.2254 29.598 47.3647 29.598 46.2175 28.4636L39.9849 22.3001L40.064 22.2199C40.0376 22.2459 40.0092 22.272 39.9829 22.2981L33.7503 16.1346L29.9702 19.8728C33.6469 20.9231 36.3325 24.2764 36.3325 28.2491C36.3325 29.0909 36.2109 29.9047 35.9859 30.6744L39.9829 34.6271C43.4265 38.0325 49.0085 38.0325 52.4501 34.6271C55.8938 31.2236 55.8938 25.7035 52.4501 22.2981ZM42.9279 40.5781C42.9279 42.1836 41.6125 43.4844 39.989 43.4844C38.3655 43.4844 37.05 42.1836 37.05 40.5781C37.05 40.1231 37.1595 39.6962 37.3459 39.3113L30.8904 32.9293C29.9357 33.5928 28.7703 33.9836 27.5136 33.9836C26.257 33.9836 25.0936 33.5928 24.1389 32.9273L17.6874 39.3073C17.8759 39.6921 17.9854 40.1211 17.9854 40.5781C17.9854 42.1836 16.6699 43.4844 15.0464 43.4844C13.4229 43.4844 12.1075 42.1836 12.1075 40.5781C12.1075 38.9726 13.4229 37.6717 15.0464 37.6717C15.466 37.6717 15.8653 37.7599 16.226 37.9163L22.7059 31.5082C22.031 30.5642 21.6378 29.4116 21.6378 28.1709C21.6378 24.9599 24.2686 22.3582 27.5136 22.3582C30.7586 22.3582 33.3915 24.9599 33.3915 28.1709C33.3915 29.4136 32.9963 30.5662 32.3234 31.5102L38.8033 37.9183C39.1661 37.7599 39.5654 37.6717 39.9869 37.6717C41.6105 37.6717 42.9259 38.9726 42.9259 40.5781H42.9279ZM30.4546 28.2491C30.4546 26.6436 29.1392 25.3427 27.5157 25.3427C25.8921 25.3427 24.5787 26.6436 24.5787 28.2491C24.5787 28.664 24.6659 29.0589 24.826 29.4156C25.1057 30.047 25.6043 30.5602 26.2286 30.8628C26.6178 31.0492 27.0535 31.1555 27.5157 31.1555C27.9778 31.1555 28.4136 31.0512 28.8027 30.8628C29.427 30.5622 29.9276 30.047 30.2073 29.4156C30.3675 29.0589 30.4546 28.664 30.4546 28.2491Z" fill="url(#paint0_linear_447_6)"/>
<defs>
<linearGradient id="paint0_linear_447_6" x1="27.5164" y1="0.515625" x2="27.5164" y2="43.4507" gradientUnits="userSpaceOnUse">
<stop stop-color="#718F2D"/>
<stop offset="1" stop-color="#20270C"/>
</linearGradient>
</defs>
</svg>
